{"title":"Jason Bourne 2016 CAM READNFO XviD-BiGDADDYVAiN","uid":15467045,"size":1489895498,"categoryP":"video","categoryS":"movies","magnet":"?xt=urn:btih:119803b63ce2938b4ebe500e273586381a295813&amp;dn=Jason+Bourne+2016+CAM+READNFO+XviD-BiGDADDYVAiN&amp;tr=udp%3A%2F%2Ftracker.leechers-paradise.org%3A6969&amp;tr=udp%3A%2F%2Fzer0day.ch%3A1337&amp;tr=udp%3A%2F%2Fopen.demonii.com%3A1337&amp;tr=udp%3A%2F%2Ftracker.coppersurfer.tk%3A6969&amp;tr=udp%3A%2F%2Fexodus.desync.com%3A6969","seeders":7,"leechers":4,"uploader":"makintos13","files":3,"time":1470106699,"description":"Jason Bourne 2016 CAM READNFO XviD-BiGDADDYVAiN\r\n\r\n\r\nscreens:\r\n \nhttps://imgmak.com/aR5\r\n \nhttps://imgmak.com/aR1\r\n \nhttps://imgmak.com/aRU\r\n \nhttps://imgmak.com/aR3\r\n\r\n\r\nT E C H N i C A L . i N F O . . .\r\n\r\nBasic Information\r\nFormat                      : AVI\r\nFormat/Info                 : Audio Video Interleave\r\nFile size                   : 1.37 GiB\r\nDuration                    : 1 h 53 min\r\nOverall bit rate            : 1 731 kb/s\r\nWriting application         : VirtualDubMod 1.5.10.2 (build 2540/release)\r\nWriting library             : VirtualDubMod build 2540/release\r\n\r\nVideo\r\nID                          : 0\r\nFormat                      : MPEG-4 Visual\r\nFormat profile              : Advanced   \r\nFormat settings, BVOP       : 2\r\nFormat settings, QPel       : No\r\nFormat settings, GMC        : No warppoints\r\nFormat settings, Matrix     : Default (MPEG)\r\nMuxing mode                 : Packed bitstream\r\nCodec ID                    : XVID\r\nCodec ID/Hint               : XviD\r\nDuration                    : 1 h 53 min\r\nBit rate                    : 1 594 kb/s\r\nWidth                       : 634 pixels\r\nHeight                      : 240 pixels\r\nDisplay aspect ratio        : 2.642\r\nFrame rate                  : 25.000 FPS\r\nColor space                 : YUV\r\nChroma subsampling          : 4:2:0\r\nBit depth                   : 8 bits\r\nScan type                   : Progressive\r\nCompression mode            : Lossy\r\nBits/(Pixel*Frame)          : 0.419\r\nStream size                 : 1.26 GiB (92%)\r\nWriting library             : XviD 67\r\n\r\nAudio\r\nID                          : 1\r\nFormat                      : AC-3\r\nFormat/Info                 : Audio Coding 3\r\nMode extension              : CM (complete main)\r\nFormat settings, Endianness : Big\r\nCodec ID                    : 2000\r\nDuration                    : 1 h 53 min\r\nBit rate mode               : Constant\r\nBit rate                    : 128 kb/s\r\nChannel(s)                  : 2 channels\r\nChannel positions           : Front: L R\r\nSampling rate               : 32.0 kHz\r\nFrame rate                  : 20.833 FPS (1536 spf)\r\nCompression mode            : Lossy\r\nStream size                 : 104 MiB (7%)\r\nAlignment                   : Split accross interleaves\r\nInterleave, duration        : 40  ms (1.00 video frame)\r\nInterleave, preload duratio : 500  ms","torrent":{"xt":"urn:btih:119803b63ce2938b4ebe500e273586381a295813","amp;dn":"Jason+Bourne+2016+CAM+READNFO+XviD-BiGDADDYVAiN","amp;tr":["udp%3A%2F%2Ftracker.leechers-paradise.org%3A6969","udp%3A%2F%2Fzer0day.ch%3A1337","udp%3A%2F%2Fopen.demonii.com%3A1337","udp%3A%2F%2Ftracker.coppersurfer.tk%3A6969","udp%3A%2F%2Fexodus.desync.com%3A6969"],"infoHash":"119803b63ce2938b4ebe500e273586381a295813","infoHashBuffer":{"type":"Buffer","data":[17,152,3,182,60,226,147,139,78,190,80,14,39,53,134,56,26,41,88,19]},"announce":[],"urlList":[]}}